<svg xmlns="http://www.w3.org/2000/svg" viewBox="0 0 760 470" width="760" height="470" font-family="Helvetica,Arial,sans-serif">
<rect width="760" height="470" fill="white"/>
<text x="78" y="24" font-size="15" font-weight="bold" fill="#222222">Cost-quality frontier: policies are curves, not points</text>
<text x="78" y="40" font-size="11" fill="#666666">measured</text>
<line x1="78" y1="408.0" x2="592" y2="408.0" stroke="#dddddd" stroke-width="1"/>
<text x="69" y="412.0" text-anchor="end" font-size="11" fill="#222222">84%</text>
<line x1="78" y1="335.6" x2="592" y2="335.6" stroke="#dddddd" stroke-width="1"/>
<text x="69" y="339.6" text-anchor="end" font-size="11" fill="#222222">87%</text>
<line x1="78" y1="263.2" x2="592" y2="263.2" stroke="#dddddd" stroke-width="1"/>
<text x="69" y="267.2" text-anchor="end" font-size="11" fill="#222222">90%</text>
<line x1="78" y1="190.8" x2="592" y2="190.8" stroke="#dddddd" stroke-width="1"/>
<text x="69" y="194.8" text-anchor="end" font-size="11" fill="#222222">93%</text>
<line x1="78" y1="118.4" x2="592" y2="118.4" stroke="#dddddd" stroke-width="1"/>
<text x="69" y="122.4" text-anchor="end" font-size="11" fill="#222222">96%</text>
<line x1="78" y1="46.0" x2="592" y2="46.0" stroke="#dddddd" stroke-width="1"/>
<text x="69" y="50.0" text-anchor="end" font-size="11" fill="#222222">99%</text>
<line x1="78.0" y1="46" x2="78.0" y2="408" stroke="#dddddd" stroke-width="1"/>
<text x="78.0" y="426" text-anchor="middle" font-size="11" fill="#222222">$0.0000</text>
<line x1="180.8" y1="46" x2="180.8" y2="408" stroke="#dddddd" stroke-width="1"/>
<text x="180.8" y="426" text-anchor="middle" font-size="11" fill="#222222">$0.0019</text>
<line x1="283.6" y1="46" x2="283.6" y2="408" stroke="#dddddd" stroke-width="1"/>
<text x="283.6" y="426" text-anchor="middle" font-size="11" fill="#222222">$0.0037</text>
<line x1="386.4" y1="46" x2="386.4" y2="408" stroke="#dddddd" stroke-width="1"/>
<text x="386.4" y="426" text-anchor="middle" font-size="11" fill="#222222">$0.0056</text>
<line x1="489.2" y1="46" x2="489.2" y2="408" stroke="#dddddd" stroke-width="1"/>
<text x="489.2" y="426" text-anchor="middle" font-size="11" fill="#222222">$0.0074</text>
<line x1="592.0" y1="46" x2="592.0" y2="408" stroke="#dddddd" stroke-width="1"/>
<text x="592.0" y="426" text-anchor="middle" font-size="11" fill="#222222">$0.0093</text>
<rect x="78" y="46" width="514" height="362" fill="none" stroke="#222222" stroke-width="1"/>
<path d="M 326.3 140.4 L 326.3 140.4 L 337.1 117.3 L 350.3 105.8 L 353.7 105.8 L 385.4 94.3 L 429.7 94.3" fill="none" stroke="#0072b2" stroke-width="2.2"/>
<circle cx="326.3" cy="140.4" r="3" fill="#0072b2"/>
<circle cx="326.3" cy="140.4" r="3" fill="#0072b2"/>
<circle cx="337.1" cy="117.3" r="3" fill="#0072b2"/>
<circle cx="350.3" cy="105.8" r="3" fill="#0072b2"/>
<circle cx="353.7" cy="105.8" r="3" fill="#0072b2"/>
<circle cx="385.4" cy="94.3" r="3" fill="#0072b2"/>
<circle cx="429.7" cy="94.3" r="3" fill="#0072b2"/>
<path d="M 296.8 336.7 L 296.8 336.7 L 296.8 336.7 L 296.8 336.7 L 296.8 336.7 L 319.4 152.0 L 382.5 117.3 L 514.5 117.3 L 514.5 117.3 L 567.5 117.3 L 567.5 117.3" fill="none" stroke="#d55e00" stroke-width="2.2"/>
<circle cx="296.8" cy="336.7" r="3" fill="#d55e00"/>
<circle cx="296.8" cy="336.7" r="3" fill="#d55e00"/>
<circle cx="296.8" cy="336.7" r="3" fill="#d55e00"/>
<circle cx="296.8" cy="336.7" r="3" fill="#d55e00"/>
<circle cx="296.8" cy="336.7" r="3" fill="#d55e00"/>
<circle cx="319.4" cy="152.0" r="3" fill="#d55e00"/>
<circle cx="382.5" cy="117.3" r="3" fill="#d55e00"/>
<circle cx="514.5" cy="117.3" r="3" fill="#d55e00"/>
<circle cx="514.5" cy="117.3" r="3" fill="#d55e00"/>
<circle cx="567.5" cy="117.3" r="3" fill="#d55e00"/>
<circle cx="567.5" cy="117.3" r="3" fill="#d55e00"/>
<path d="M 156.5 359.7 L 167.9 348.2 L 189.9 290.5 L 205.5 302.0 L 216.9 313.6 L 222.5 267.4 L 229.6 267.4 L 264.6 255.9 L 268.7 255.9 L 284.3 244.3 L 300.2 209.7" fill="none" stroke="#009e73" stroke-width="2.2" stroke-dasharray="6,4"/>
<circle cx="156.5" cy="359.7" r="3" fill="#009e73"/>
<circle cx="167.9" cy="348.2" r="3" fill="#009e73"/>
<circle cx="189.9" cy="290.5" r="3" fill="#009e73"/>
<circle cx="205.5" cy="302.0" r="3" fill="#009e73"/>
<circle cx="216.9" cy="313.6" r="3" fill="#009e73"/>
<circle cx="222.5" cy="267.4" r="3" fill="#009e73"/>
<circle cx="229.6" cy="267.4" r="3" fill="#009e73"/>
<circle cx="264.6" cy="255.9" r="3" fill="#009e73"/>
<circle cx="268.7" cy="255.9" r="3" fill="#009e73"/>
<circle cx="284.3" cy="244.3" r="3" fill="#009e73"/>
<circle cx="300.2" cy="209.7" r="3" fill="#009e73"/>
<path d="M 156.5 359.7 L 172.2 336.7 L 191.4 302.0 L 202.7 290.5 L 214.6 267.4 L 226.3 278.9 L 246.8 290.5 L 261.4 255.9 L 272.0 244.3 L 283.5 221.2 L 300.2 209.7" fill="none" stroke="#cc79a7" stroke-width="2.2"/>
<circle cx="156.5" cy="359.7" r="3" fill="#cc79a7"/>
<circle cx="172.2" cy="336.7" r="3" fill="#cc79a7"/>
<circle cx="191.4" cy="302.0" r="3" fill="#cc79a7"/>
<circle cx="202.7" cy="290.5" r="3" fill="#cc79a7"/>
<circle cx="214.6" cy="267.4" r="3" fill="#cc79a7"/>
<circle cx="226.3" cy="278.9" r="3" fill="#cc79a7"/>
<circle cx="246.8" cy="290.5" r="3" fill="#cc79a7"/>
<circle cx="261.4" cy="255.9" r="3" fill="#cc79a7"/>
<circle cx="272.0" cy="244.3" r="3" fill="#cc79a7"/>
<circle cx="283.5" cy="221.2" r="3" fill="#cc79a7"/>
<circle cx="300.2" cy="209.7" r="3" fill="#cc79a7"/>
<circle cx="156.5" cy="359.7" r="5" fill="#111111"/>
<circle cx="225.9" cy="302.0" r="5" fill="#666666"/>
<rect x="295.7" y="205.2" width="9" height="9" fill="#111111"/>
<polygon points="175.2,88.3 181.2,94.3 175.2,100.3 169.2,94.3" fill="#999999"/>
<text x="335" y="440" text-anchor="middle" font-size="12" fill="#222222">cost per task (USD)</text>
<text x="18" y="227" font-size="12" fill="#222222" transform="rotate(-90 18 227)" text-anchor="middle">accuracy</text>
<line x1="604" y1="52" x2="628" y2="52" stroke="#0072b2" stroke-width="2.5"/>
<text x="634" y="56" font-size="11" fill="#222222">cascade</text>
<line x1="604" y1="71" x2="628" y2="71" stroke="#d55e00" stroke-width="2.5"/>
<text x="634" y="75" font-size="11" fill="#222222">cascade_routing</text>
<line x1="604" y1="90" x2="628" y2="90" stroke="#009e73" stroke-width="2.5" stroke-dasharray="6,4"/>
<text x="634" y="94" font-size="11" fill="#222222">random</text>
<line x1="604" y1="109" x2="628" y2="109" stroke="#cc79a7" stroke-width="2.5"/>
<text x="634" y="113" font-size="11" fill="#222222">routellm</text>
<line x1="604" y1="128" x2="628" y2="128" stroke="#111111" stroke-width="2.5"/>
<text x="634" y="132" font-size="11" fill="#222222">always_cheap</text>
<line x1="604" y1="147" x2="628" y2="147" stroke="#666666" stroke-width="2.5"/>
<text x="634" y="151" font-size="11" fill="#222222">always_mid</text>
<line x1="604" y1="166" x2="628" y2="166" stroke="#111111" stroke-width="2.5"/>
<text x="634" y="170" font-size="11" fill="#222222">always_expensive</text>
<line x1="604" y1="185" x2="628" y2="185" stroke="#999999" stroke-width="2.5"/>
<text x="634" y="189" font-size="11" fill="#222222">oracle (not deployable)</text>
<text x="78" y="461" font-size="10" fill="#888888">up and to the left is better; the dashed line is the random baseline every router must beat</text>
</svg>